<?xml version="1.0" encoding="utf-8"?>
<!-- Generator: Adobe Illustrator 22.0.0, SVG Export Plug-In . SVG Version: 6.00 Build 0)  -->
<svg version="1.1" id="Layer_1" xmlns="http://www.w3.org/2000/svg" xmlns:xlink="http://www.w3.org/1999/xlink" x="0px" y="0px"
	 viewBox="0 0 107.4 106.4" style="enable-background:new 0 0 107.4 106.4;" xml:space="preserve">
<style type="text/css">
	.st0{fill:#FFC222;}
	.st1{fill:#FEC223;stroke:#000000;stroke-width:2;stroke-miterlimit:10;}
	.st2{fill:#FEB032;}
	.st3{fill:#FEC223;}
</style>
<g>
	<ellipse class="st0" cx="53.7" cy="53.2" rx="53.7" ry="53.2"/>
	<path d="M53.6,6.2c1.1,0,2.3,0,3.4,0.1c1.1,0.1,2.2,0.2,3.3,0.3l-2.7,16.2c-0.7-0.1-1.3-0.2-1.8-0.2c-0.7-0.1-1.5-0.1-2.2-0.1
		c-1.5,0-3,0.1-4.5,0.3l-3-16.1C48.6,6.4,51.1,6.2,53.6,6.2 M63.6,7.2c4.7,1,9.1,2.7,13.3,5l-8.4,14.1c-2.5-1.4-5.2-2.4-7.9-3
		L63.6,7.2 M43,7.4l3.4,16.1c-2.8,0.7-5.4,1.7-7.9,3.1l-8.7-14C33.9,10.2,38.3,8.5,43,7.4 M79.7,13.9c4,2.6,7.5,5.7,10.6,9.4
		l-13,10.2c-1.8-2.2-4-4.1-6.3-5.6L79.7,13.9 M27,14.3l9,13.8c-2.3,1.6-4.4,3.6-6.3,5.7l-13.1-9.9C19.6,20.2,23.1,17,27,14.3
		 M92.2,25.8c2.8,3.8,5,8.1,6.5,12.6l-15.8,4.8C82,40.5,80.7,38,79,35.7L92.2,25.8 M14.6,26.5L28,36.1c-1.6,2.3-2.8,4.9-3.7,7.6
		L8.4,39.2C9.8,34.7,11.9,30.4,14.6,26.5 M99.6,41.5c1.2,4.6,1.7,9.3,1.4,14l-16.5-1c0.1-2.9-0.2-5.7-0.9-8.5L99.6,41.5 M7.5,42.3
		l16,4.2c-0.3,1.5-0.6,3.1-0.7,4.6c-0.1,1.3-0.1,2.6,0,3.8L6.3,56.3c-0.1-2.1-0.1-4.3,0-6.4C6.6,47.3,6.9,44.8,7.5,42.3 M84.3,57.3
		l16.5,1.6c-0.6,4.7-1.9,9.3-3.8,13.6l-15-7C83.1,62.9,83.9,60.1,84.3,57.3 M23.1,57.7c0.4,2.8,1.2,5.5,2.4,8.1l-14.8,7.3
		c-2-4.3-3.4-8.9-4-13.6L23.1,57.7 M80.7,68l14.8,7.4c-2.2,4.2-5.1,8-8.5,11.3L75.7,74.8C77.7,72.8,79.4,70.5,80.7,68 M26.8,68.4
		c1.4,2.5,3.2,4.7,5.2,6.7l-11.2,12c-3.4-3.3-6.3-7-8.6-11.2L26.8,68.4 M73.5,76.7l11.1,12.2c-3.6,3.1-7.7,5.6-12,7.5l-6.3-15.2
		C68.9,80.1,71.4,78.5,73.5,76.7 M34.1,77c2.2,1.8,4.6,3.3,7.3,4.4l-6,15.3c-4.4-1.8-8.5-4.3-12.1-7.3L34.1,77 M63.7,82.3l5.9,15.3
		c-4.5,1.6-9.2,2.5-14,2.7l-0.3-16.4C58.2,83.7,61,83.2,63.7,82.3 M44.1,82.4c2.7,0.9,5.5,1.4,8.4,1.5l-0.1,16.4
		c-0.7,0-1.4-0.1-2-0.1c-4.1-0.3-8.1-1.1-11.9-2.4L44.1,82.4 M53.6,5.1c-2.6,0-5.2,0.2-7.8,0.6c-0.5,0.1-0.9,0.6-0.8,1.1l3,16.4
		c0.1,0.5,0.5,0.8,1,0.8h0.1c1.5-0.2,2.9-0.3,4.4-0.3c0.7,0,1.4,0,2.2,0.1c0.6,0,1.2,0.1,1.8,0.2h0.1c0.5,0,0.9-0.3,0.9-0.8
		l2.7-16.4c0.1-0.5-0.3-1-0.8-1.1c-1.2-0.2-2.3-0.3-3.5-0.4l0,0C56,5.2,54.8,5.1,53.6,5.1L53.6,5.1z M63.5,6.1c-0.5,0-0.9,0.3-1,0.8
		l-3.1,16.3c-0.1,0.5,0.2,1,0.8,1.1c2.7,0.6,5.4,1.6,7.8,2.9c0.2,0.1,0.3,0.1,0.5,0.1c0.3,0,0.6-0.2,0.8-0.5l8.5-14.3
		c0.3-0.5,0.1-1.1-0.4-1.3C73.1,8.8,68.4,7,63.6,6C63.6,6.1,63.5,6.1,63.5,6.1L63.5,6.1z M43.1,6.3c-0.1,0-0.1,0-0.2,0
		c-4.8,1.1-9.4,2.9-13.7,5.4c-0.5,0.3-0.6,0.9-0.3,1.3l8.8,14.2c0.2,0.3,0.5,0.5,0.8,0.5c0.2,0,0.3,0,0.5-0.1
		c2.4-1.4,5.1-2.4,7.8-3.1c0.5-0.1,0.8-0.6,0.7-1.1L44,7.1C43.9,6.6,43.5,6.3,43.1,6.3L43.1,6.3z M79.6,12.8c-0.3,0-0.6,0.2-0.8,0.5
		l-8.9,14.1c-0.3,0.4-0.1,1,0.3,1.3c2.3,1.6,4.4,3.4,6.3,5.6c0.2,0.2,0.5,0.4,0.8,0.4c0.2,0,0.4-0.1,0.6-0.2L91,24.1
		c0.4-0.3,0.5-1,0.2-1.4c-3.2-3.8-6.8-7.1-11-9.8C80,12.8,79.8,12.8,79.6,12.8L79.6,12.8z M27,13.2c-0.2,0-0.4,0.1-0.5,0.2
		c-4.1,2.8-7.7,6.1-10.8,9.9c-0.3,0.4-0.3,1,0.2,1.4l13.3,10.1c0.2,0.1,0.4,0.2,0.6,0.2c0.3,0,0.6-0.1,0.8-0.4
		c1.8-2.2,3.9-4.1,6.2-5.7c0.4-0.3,0.6-0.9,0.3-1.3l-9.1-14C27.7,13.4,27.3,13.2,27,13.2L27,13.2z M92.2,24.7
		c-0.2,0-0.4,0.1-0.6,0.2l-13.4,10c-0.4,0.3-0.5,0.9-0.2,1.3c1.6,2.3,2.9,4.8,3.8,7.4c0.1,0.4,0.5,0.7,0.9,0.7c0.1,0,0.2,0,0.3,0
		l16-4.9c0.5-0.2,0.8-0.7,0.6-1.2c-1.6-4.7-3.8-9-6.7-13C92.8,24.9,92.5,24.7,92.2,24.7L92.2,24.7z M14.6,25.4
		c-0.3,0-0.6,0.1-0.8,0.4c-2.8,4-5,8.5-6.5,13.2c-0.1,0.5,0.2,1,0.7,1.2l16.1,4.6c0.1,0,0.2,0,0.3,0c0.4,0,0.8-0.3,0.9-0.7
		c0.9-2.7,2.1-5.2,3.7-7.5c0.3-0.4,0.2-1-0.2-1.3l-13.6-9.8C15,25.4,14.8,25.4,14.6,25.4L14.6,25.4z M99.7,40.4c-0.1,0-0.2,0-0.3,0
		L83.3,45c-0.5,0.1-0.8,0.7-0.7,1.2c0.8,3,1,6.1,0.8,9.2v0.2l17.7,1.1c0,0,0,0,0.1,0c0.5,0,0.9-0.4,1-0.9c0.3-4.9-0.2-9.8-1.5-14.6
		C100.5,40.7,100.1,40.4,99.7,40.4L99.7,40.4z M7.5,41.2c-0.4,0-0.8,0.3-0.9,0.7c-0.6,2.6-1,5.2-1.2,7.9c-0.2,2.2-0.2,4.5,0,6.7
		c0,0.5,0.5,0.9,1,0.9h0.1L23,55.9c0.5,0,0.9-0.5,0.9-1c-0.1-1.3-0.1-2.5,0-3.8c0.1-1.5,0.3-3.1,0.7-4.5c0.1-0.5-0.2-1-0.7-1.1
		L7.7,41.2C7.6,41.2,7.6,41.2,7.5,41.2L7.5,41.2z M84.2,56.2c-0.5,0-0.9,0.4-1,0.8c-0.4,2.8-1.1,5.5-2.2,8c-0.2,0.5,0,1,0.5,1.3
		l15.1,7.2c0.1,0.1,0.3,0.1,0.4,0.1c0.4,0,0.7-0.2,0.9-0.6c2-4.5,3.4-9.2,4-14.1c0.1-0.5-0.3-1-0.9-1.1L84.2,56.2L84.2,56.2
		L84.2,56.2z M23.2,56.6h-0.1L6.4,58.5c-0.5,0.1-0.9,0.5-0.9,1.1c0.6,4.9,2,9.6,4.2,14.1c0.2,0.3,0.5,0.6,0.9,0.6
		c0.1,0,0.3,0,0.4-0.1l15-7.4c0.5-0.2,0.7-0.8,0.4-1.3c-1.2-2.5-2-5.2-2.4-8C24.1,57,23.7,56.6,23.2,56.6L23.2,56.6z M80.7,66.9
		c-0.3,0-0.7,0.2-0.9,0.5c-1.3,2.5-3,4.7-5,6.7c-0.4,0.4-0.4,1,0,1.3l11.5,12.1c0.2,0.2,0.5,0.3,0.7,0.3s0.5-0.1,0.7-0.3
		c3.5-3.5,6.5-7.4,8.8-11.7c0.3-0.5,0.1-1.1-0.4-1.3l-15-7.5C81,66.9,80.8,66.9,80.7,66.9L80.7,66.9z M26.8,67.2
		c-0.1,0-0.3,0-0.4,0.1L11.6,75c-0.5,0.2-0.7,0.8-0.4,1.3c2.4,4.3,5.4,8.2,9,11.6c0.2,0.2,0.4,0.3,0.7,0.3c0.3,0,0.5-0.1,0.7-0.3
		l11.3-12.2c0.4-0.4,0.3-1,0-1.3c-2-2-3.7-4.2-5.1-6.6C27.5,67.4,27.2,67.2,26.8,67.2L26.8,67.2z M73.6,75.6c-0.2,0-0.5,0.1-0.6,0.2
		c-2.2,1.8-4.5,3.3-7.1,4.4c-0.5,0.2-0.7,0.8-0.5,1.2l6.3,15.4c0.2,0.4,0.5,0.6,0.9,0.6c0.1,0,0.3,0,0.4-0.1c4.5-2,8.7-4.6,12.5-7.8
		c0.4-0.4,0.4-1,0.1-1.4L74.3,75.9C74.1,75.7,73.8,75.6,73.6,75.6L73.6,75.6z M34.1,75.9c-0.3,0-0.5,0.1-0.7,0.3L22.3,88.7
		c-0.4,0.4-0.3,1,0.1,1.4c3.8,3.2,8,5.7,12.6,7.6c0.1,0,0.2,0.1,0.4,0.1c0.4,0,0.8-0.2,0.9-0.6l6.1-15.5c0.2-0.5,0-1-0.5-1.2
		c-2.6-1.1-5-2.6-7.2-4.3C34.5,75.9,34.3,75.9,34.1,75.9L34.1,75.9z M63.7,81.2c-0.1,0-0.2,0-0.3,0.1c-2.7,0.9-5.4,1.4-8.2,1.6
		c-0.5,0-0.9,0.4-0.9,1l0.3,16.6c0,0.5,0.4,1,1,1l0,0c5-0.2,9.8-1.1,14.5-2.8c0.5-0.2,0.8-0.8,0.6-1.3l-6-15.5
		C64.5,81.4,64.1,81.2,63.7,81.2L63.7,81.2z M44,81.3c-0.4,0-0.8,0.2-0.9,0.6l-5.8,15.6c-0.2,0.5,0.1,1.1,0.6,1.2
		c4,1.3,8.1,2.2,12.3,2.5c0.7,0.1,1.5,0.1,2.2,0.1l0,0c0.5,0,1-0.4,1-1l0.1-16.6c0-0.5-0.4-0.9-0.9-1c-2.8-0.1-5.6-0.6-8.3-1.5
		C44.2,81.3,44.1,81.3,44,81.3L44,81.3z"/>
	<g>
		<path class="st1" d="M65.5,59h9c0.3,0,0.4-0.3,0.2-0.5l-5.4-5.6L48,31.9c-0.2-0.2-0.5-0.1-0.5,0.2L47.4,59c0,0.2-0.1,0.3-0.3,0.3
			h-1.9H32.8c-0.3,0-0.4,0.3-0.2,0.5l14.6,15c0.1,0.1,0.3,0.1,0.4,0L63.2,59c0.1-0.1,0.1-0.1,0.2-0.1L65.5,59L65.5,59z"/>
		<polygon class="st2" points="69.3,52.9 75.2,59 62.2,59 		"/>
		<polygon points="62.4,59 65.5,59 69.3,52.9 		"/>
		<polygon class="st2" points="47.4,75 32.1,59.3 49.9,59.3 		"/>
		<polygon points="50.5,59.3 45.3,59.3 47.4,75 		"/>
		<polygon class="st3" points="47.6,31.5 47.3,75 69.3,52.9 		"/>
	</g>
</g>
</svg>
